<svg width="28" height="26" viewBox="0 0 28 26" fill="none" xmlns="http://www.w3.org/2000/svg">
<g clip-path="url(#clip0_111_15720)">
<path d="M7.62197 2.3022C10.0595 2.57301 12.0906 4.33343 13.9864 6.63554C15.8822 4.33343 18.0623 2.3022 20.7706 2.3022C24.2914 2.3022 25.8971 5.49676 25.4968 8.21286C25.0906 10.9689 24.0204 11.3751 19.2678 17.1981L14.6636 22.6147C13.7657 23.5713 14.2074 23.5713 13.3095 22.6147L11.6845 20.5835L10.3302 18.9584L8.84073 17.1981C3.84334 11.3751 2.68483 9.88554 2.48914 8.21286C2.08279 4.73972 4.38506 1.94257 7.62197 2.3022Z" fill="url(#paint0_linear_111_15720)"/>
<path d="M20.7708 0.258301C17.9499 0.258301 15.8153 1.91379 13.9999 3.64372C12.27 1.80798 10.05 0.258301 7.22909 0.258301C3.25629 0.258301 0.458252 3.67416 0.458252 7.39901C0.458252 9.39724 1.27668 10.8369 2.17295 12.1885L12.6957 24.8043C13.8772 26.0543 14.0998 26.0543 15.2813 24.8043L25.8277 12.1885C26.8814 10.8369 27.5416 9.39724 27.5416 7.39901C27.5416 3.67421 24.7435 0.258301 20.7708 0.258301ZM24.1562 11.8382L13.9999 23.9562L3.84367 11.7882C2.62917 10.0997 2.15096 8.96055 2.15096 7.39901C2.15096 4.48923 4.22877 1.86976 7.22909 1.8452C9.69708 1.82489 12.4943 4.34532 13.9999 6.2454C15.4658 4.41134 18.3028 1.8452 20.7708 1.8452C23.6915 1.8452 25.8489 4.48923 25.8489 7.39901C25.8489 8.96055 25.4706 10.1843 24.1562 11.8382Z" fill="black"/>
</g>
<defs>
<linearGradient id="paint0_linear_111_15720" x1="-10.4146" y1="-12.3548" x2="29.8288" y2="-7.10721" gradientUnits="userSpaceOnUse">
<stop stop-color="#F64D4D"/>
<stop offset="1" stop-color="#4D5EF6"/>
</linearGradient>
<clipPath id="clip0_111_15720">
<rect width="27.0833" height="26" fill="white" transform="translate(0.458252)"/>
</clipPath>
</defs>
</svg>
